<mxfile host="app.diagrams.net" modified="2021-07-24T15:33:03.478Z" agent="5.0 (Macintosh; Intel Mac OS X 10_15_7) AppleWebKit/537.36 (KHTML, like Gecko) Chrome/91.0.4472.164 Safari/537.36" etag="jaTw4dQqP6uUEwbcXlg6" version="14.8.2" type="github">
  <diagram id="26mvFp0IOFxt6p1Uozx3" name="Page-1">
    <mxGraphModel dx="1244" dy="666" grid="1" gridSize="10" guides="1" tooltips="1" connect="1" arrows="1" fold="1" page="1" pageScale="1" pageWidth="850" pageHeight="1100" background="#FFFFFF" math="0" shadow="0">
      <root>
        <mxCell id="0" />
        <mxCell id="1" parent="0" />
        <mxCell id="tOn2bwrpuCFC1Trtvur6-1" value="Case #1: From online; make only child offline" style="text;html=1;strokeColor=none;fillColor=none;align=left;verticalAlign=middle;whiteSpace=wrap;rounded=0;fontSize=15;" vertex="1" parent="1">
          <mxGeometry x="40" y="40" width="770" height="20" as="geometry" />
        </mxCell>
        <mxCell id="tOn2bwrpuCFC1Trtvur6-3" value="" style="shape=image;verticalLabelPosition=bottom;labelBackgroundColor=#ffffff;verticalAlign=top;aspect=fixed;imageAspect=0;image=data:image/svg+xml,PHN2ZyB4bWxucz0iaHR0cDovL3d3dy53My5vcmcvMjAwMC9zdmciIHhtbG5zOnhsaW5rPSJodHRwOi8vd3d3LnczLm9yZy8xOTk5L3hsaW5rIiB3aWR0aD0iMzYiIGhlaWdodD0iMzYiIHZpZXdCb3g9Ii05IC05IDM2IDM2IiB2ZXJzaW9uPSIxLjEiPiYjeGE7ICAgIDx0aXRsZT5VbnRpdGxlZDwvdGl0bGU+JiN4YTsgICAgPGRlZnM+JiN4YTsgICAgICAgIDxyZWN0IGlkPSJwYXRoLTEiIHg9IjAiIHk9IjAiIHdpZHRoPSIxOCIgaGVpZ2h0PSIxOCIvPiYjeGE7ICAgIDwvZGVmcz4mI3hhOyAgICA8ZyBpZD0iUGFnZS0xIiBzdHJva2U9Im5vbmUiIHN0cm9rZS13aWR0aD0iMSIgZmlsbD0ibm9uZSIgZmlsbC1ydWxlPSJldmVub2RkIj4mI3hhOyAgICAgICAgPGcgaWQ9Ikljbi1zdG9yZWQtbG9jYWwtMzZ4MzYiPiYjeGE7ICAgICAgICAgICAgPG1hc2sgaWQ9Im1hc2stMiIgZmlsbD0id2hpdGUiPiYjeGE7ICAgICAgICAgICAgICAgIDx1c2UgeGxpbms6aHJlZj0iI3BhdGgtMSIvPiYjeGE7ICAgICAgICAgICAgPC9tYXNrPiYjeGE7ICAgICAgICAgICAgPGcgaWQ9IlJlY3RhbmdsZSIvPiYjeGE7ICAgICAgICAgICAgPGcgbWFzaz0idXJsKCNtYXNrLTIpIj4mI3hhOyAgICAgICAgICAgICAgICA8ZyB0cmFuc2Zvcm09InRyYW5zbGF0ZSgtOS4wMDAwMDAsIC05LjAwMDAwMCkiPiYjeGE7ICAgICAgICAgICAgICAgICAgICA8cmVjdCBpZD0iUmVjdGFuZ2xlIiBmaWxsLXJ1bGU9Im5vbnplcm8iIHg9IjkiIHk9IjkiIHdpZHRoPSIxOCIgaGVpZ2h0PSIxOCIvPiYjeGE7ICAgICAgICAgICAgICAgICAgICA8ZyBpZD0iR3J1cHBlXzE2NCIgc3Ryb2tlLXdpZHRoPSIxIiBmaWxsLXJ1bGU9ImV2ZW5vZGQiPiYjeGE7ICAgICAgICAgICAgICAgICAgICAgICAgPGcgaWQ9IkdydXBwZV84NSIgdHJhbnNmb3JtPSJ0cmFuc2xhdGUoMTAuMDAwMDAwLCAxMC4wMDAwMDApIj4mI3hhOyAgICAgICAgICAgICAgICAgICAgICAgICAgICA8ZyBpZD0iRWxsaXBzZV8xIj4mI3hhOyAgICAgICAgICAgICAgICAgICAgICAgICAgICAgICAgPGNpcmNsZSBpZD0iT3ZhbCIgZmlsbD0iIzE2ODkyNyIgZmlsbC1ydWxlPSJub256ZXJvIiBjeD0iOCIgY3k9IjgiIHI9IjgiLz4mI3hhOyAgICAgICAgICAgICAgICAgICAgICAgICAgICAgICAgPGNpcmNsZSBpZD0iT3ZhbCIgc3Ryb2tlPSIjMTc4RDI5IiBjeD0iOCIgY3k9IjgiIHI9IjcuNSIvPiYjeGE7ICAgICAgICAgICAgICAgICAgICAgICAgICAgIDwvZz4mI3hhOyAgICAgICAgICAgICAgICAgICAgICAgICAgICA8cG9seWxpbmUgaWQ9IlBmYWRfNDAyIiBzdHJva2U9IiNGRkZGRkYiIHBvaW50cz0iNC4xNTEgNy4yNzkgNy41ODQgMTAuOSAxMi45OTkgNS4xOSIvPiYjeGE7ICAgICAgICAgICAgICAgICAgICAgICAgPC9nPiYjeGE7ICAgICAgICAgICAgICAgICAgICAgICAgPHJlY3QgaWQ9IlJlY2h0ZWNrXzE2MjkiIHg9IjAiIHk9IjAiIHdpZHRoPSIzNiIgaGVpZ2h0PSIzNiIvPiYjeGE7ICAgICAgICAgICAgICAgICAgICA8L2c+JiN4YTsgICAgICAgICAgICAgICAgPC9nPiYjeGE7ICAgICAgICAgICAgPC9nPiYjeGE7ICAgICAgICA8L2c+JiN4YTsgICAgPC9nPiYjeGE7PC9zdmc+;" vertex="1" parent="1">
          <mxGeometry x="662" y="310" width="36" height="36" as="geometry" />
        </mxCell>
        <mxCell id="tOn2bwrpuCFC1Trtvur6-13" value="" style="edgeStyle=orthogonalEdgeStyle;rounded=0;orthogonalLoop=1;jettySize=auto;html=1;fontSize=15;entryX=0;entryY=0.5;entryDx=0;entryDy=0;" edge="1" parent="1" source="tOn2bwrpuCFC1Trtvur6-7" target="tOn2bwrpuCFC1Trtvur6-8">
          <mxGeometry relative="1" as="geometry">
            <mxPoint x="264.7550000000001" y="185" as="targetPoint" />
          </mxGeometry>
        </mxCell>
        <mxCell id="tOn2bwrpuCFC1Trtvur6-7" value="" style="shape=image;verticalLabelPosition=bottom;labelBackgroundColor=#ffffff;verticalAlign=top;aspect=fixed;imageAspect=0;image=data:image/svg+xml,PHN2ZyB4bWxucz0iaHR0cDovL3d3dy53My5vcmcvMjAwMC9zdmciIHhtbG5zOnhsaW5rPSJodHRwOi8vd3d3LnczLm9yZy8xOTk5L3hsaW5rIiB3aWR0aD0iNDQiIGhlaWdodD0iNDgiIHZpZXdCb3g9IjAgLTQgNDQgNDgiIHZlcnNpb249IjEuMSI+JiN4YTsgICAgPHRpdGxlPmZvbGRlck5ldzwvdGl0bGU+JiN4YTsgICAgPGRlZnM+JiN4YTsgICAgICAgIDxyZWN0IGlkPSJwYXRoLTEiIHg9IjAiIHk9IjAiIHdpZHRoPSI0NCIgaGVpZ2h0PSI0NCIvPiYjeGE7ICAgIDwvZGVmcz4mI3hhOyAgICA8ZyBpZD0iUGFnZS0xIiBzdHJva2U9Im5vbmUiIHN0cm9rZS13aWR0aD0iMSIgZmlsbD0ibm9uZSIgZmlsbC1ydWxlPSJldmVub2RkIj4mI3hhOyAgICAgICAgPGcgaWQ9Ik1hc2siPiYjeGE7ICAgICAgICAgICAgPG1hc2sgaWQ9Im1hc2stMiIgZmlsbD0id2hpdGUiPiYjeGE7ICAgICAgICAgICAgICAgIDx1c2UgeGxpbms6aHJlZj0iI3BhdGgtMSIvPiYjeGE7ICAgICAgICAgICAgPC9tYXNrPiYjeGE7ICAgICAgICAgICAgPGcgaWQ9IlJlY3RhbmdsZSIvPiYjeGE7ICAgICAgICAgICAgPGcgaWQ9Imljbi1Gb2xkZXItTmV3LTQyeDQyIiBtYXNrPSJ1cmwoI21hc2stMikiPiYjeGE7ICAgICAgICAgICAgICAgIDxnIHRyYW5zZm9ybT0idHJhbnNsYXRlKDAuMDAwMDAwLCAtNC4wMDAwMDApIj4mI3hhOyAgICAgICAgICAgICAgICAgICAgPHJlY3QgaWQ9IlJlY3RhbmdsZSIgZmlsbC1ydWxlPSJub256ZXJvIiB4PSIwIiB5PSI0IiB3aWR0aD0iNDQiIGhlaWdodD0iNDQiLz4mI3hhOyAgICAgICAgICAgICAgICAgICAgPGcgaWQ9IkdydXBwZV8xNjYiIHN0cm9rZS13aWR0aD0iMSIgZmlsbC1ydWxlPSJldmVub2RkIiB0cmFuc2Zvcm09InRyYW5zbGF0ZSgxLjAwMDAwMCwgMC4wMDAwMDApIj4mI3hhOyAgICAgICAgICAgICAgICAgICAgICAgIDxnIGlkPSJHcnVwcGVfMTYwIiB0cmFuc2Zvcm09InRyYW5zbGF0ZSgyLjAwMDAwMCwgNS4wMDAwMDApIiBmaWxsLXJ1bGU9Im5vbnplcm8iPiYjeGE7ICAgICAgICAgICAgICAgICAgICAgICAgICAgIDxnIGlkPSJHcnVwcGVfNzIiIHRyYW5zZm9ybT0idHJhbnNsYXRlKDEwLjAwMDAwMCwgMTAuMDAwMDAwKSI+JiN4YTsgICAgICAgICAgICAgICAgICAgICAgICAgICAgICAgIDxwYXRoIGQ9Ik0yNi41MDcsMjAuMDM0MDc3IEwxLjQ5MywyMC4wMzQwNzcgQzEuMTAxMDA0MDQsMjAuMDM3OTk4NSAwLjcyMzQ3Njk0NSwxOS44ODYxMDMgMC40NDM0ODA3MTEsMTkuNjExNzMyOSBDMC4xNjM0ODQ0NzcsMTkuMzM3MzYyOSAwLjAwMzk1ODEyMjUyLDE4Ljk2Mjk5NjQgMCwxOC41NzEgTDAsMS40NjMgQzAuMDAzOTU4MTIyNTIsMS4wNzEwMDM2MyAwLjE2MzQ4NDQ3NywwLjY5NjYzNzEwOSAwLjQ0MzQ4MDcxMSwwLjQyMjI2NzA1NSBDMC43MjM0NzY5NDUsMC4xNDc4OTcwMDIgMS4xMDEwMDQwNCwtMC4wMDM5OTg0OTc3OSAxLjQ5MywtNy42OTg4MjA5NWUtMDUgTDguNTU0LC03LjY5ODgyMDk1ZS0wNSBDOS4wODk0MTc5MiwtMC4wMDExNjk4NjkyOCA5LjU4NDg2Mzg5LDAuMjgzMTM5ODk2IDkuODU0LDAuNzQ2IEwxMC42NzgsMS42NjcgQzEwLjk0NzEzNjEsMi4xMjk4NjAxIDExLjQ0MjU4MjEsMi40MTQxNjk4NyAxMS45NzgsMi40MTMgTDI2LjUwNywyLjQxMyBDMjYuODk4OTk2LDIuNDA5MDAxNSAyNy4yNzY1MjMxLDIuNTYwODk3IDI3LjU1NjUxOTMsMi44MzUyNjcwNiBDMjcuODM2NTE1NSwzLjEwOTYzNzExIDI3Ljk5NjA0MTksMy40ODQwMDM2MyAyOCwzLjg3NiBMMjgsMTkuMDg1IEMyOCwxOS44OTMgMjcuMzMxLDIwLjAzNDA3NyAyNi41MDcsMjAuMDM0MDc3IFoiIGlkPSJQZmFkXzQwMSIgZmlsbD0iIzk1RERGRCIvPiYjeGE7ICAgICAgICAgICAgICAgICAgICAgICAgICAgICAgICA8cmVjdCBpZD0iUmVjaHRlY2tfMzIiIGZpbGw9IiM2RUNGRjkiIHg9IjAiIHk9IjQiIHdpZHRoPSIyOCIgaGVpZ2h0PSIxOCIgcng9IjMiLz4mI3hhOyAgICAgICAgICAgICAgICAgICAgICAgICAgICA8L2c+JiN4YTsgICAgICAgICAgICAgICAgICAgICAgICA8L2c+JiN4YTsgICAgICAgICAgICAgICAgICAgICAgICA8cmVjdCBpZD0iUmVjaHRlY2tfMTYzMSIgeD0iMCIgeT0iMCIgd2lkdGg9IjQyIiBoZWlnaHQ9IjQyIi8+JiN4YTsgICAgICAgICAgICAgICAgICAgIDwvZz4mI3hhOyAgICAgICAgICAgICAgICA8L2c+JiN4YTsgICAgICAgICAgICA8L2c+JiN4YTsgICAgICAgIDwvZz4mI3hhOyAgICA8L2c+JiN4YTs8L3N2Zz4=;" vertex="1" parent="1">
          <mxGeometry x="46" y="120" width="119.17" height="130" as="geometry" />
        </mxCell>
        <mxCell id="tOn2bwrpuCFC1Trtvur6-5" value="" style="shape=image;verticalLabelPosition=bottom;labelBackgroundColor=#ffffff;verticalAlign=top;aspect=fixed;imageAspect=0;image=data:image/svg+xml,PHN2ZyB4bWxucz0iaHR0cDovL3d3dy53My5vcmcvMjAwMC9zdmciIHhtbG5zOnhsaW5rPSJodHRwOi8vd3d3LnczLm9yZy8xOTk5L3hsaW5rIiB3aWR0aD0iMzYiIGhlaWdodD0iMzYiIHZpZXdCb3g9Ii05IC05IDM2IDM2IiB2ZXJzaW9uPSIxLjEiPiYjeGE7ICAgIDx0aXRsZT5VbnRpdGxlZDwvdGl0bGU+JiN4YTsgICAgPGRlZnM+JiN4YTsgICAgICAgIDxyZWN0IGlkPSJwYXRoLTEiIHg9IjAiIHk9IjAiIHdpZHRoPSIxOCIgaGVpZ2h0PSIxOCIvPiYjeGE7ICAgIDwvZGVmcz4mI3hhOyAgICA8ZyBpZD0iUGFnZS0xIiBzdHJva2U9Im5vbmUiIHN0cm9rZS13aWR0aD0iMSIgZmlsbD0ibm9uZSIgZmlsbC1ydWxlPSJldmVub2RkIj4mI3hhOyAgICAgICAgPGcgaWQ9Imljbi1DbG91ZC0zNngzNiI+JiN4YTsgICAgICAgICAgICA8bWFzayBpZD0ibWFzay0yIiBmaWxsPSJ3aGl0ZSI+JiN4YTsgICAgICAgICAgICAgICAgPHVzZSB4bGluazpocmVmPSIjcGF0aC0xIi8+JiN4YTsgICAgICAgICAgICA8L21hc2s+JiN4YTsgICAgICAgICAgICA8ZyBpZD0iUmVjdGFuZ2xlIi8+JiN4YTsgICAgICAgICAgICA8ZyBtYXNrPSJ1cmwoI21hc2stMikiPiYjeGE7ICAgICAgICAgICAgICAgIDxnIHRyYW5zZm9ybT0idHJhbnNsYXRlKC05LjAwMDAwMCwgLTkuMDAwMDAwKSI+JiN4YTsgICAgICAgICAgICAgICAgICAgIDxyZWN0IGlkPSJSZWN0YW5nbGUiIGZpbGwtcnVsZT0ibm9uemVybyIgeD0iOSIgeT0iOSIgd2lkdGg9IjE4IiBoZWlnaHQ9IjE4Ii8+JiN4YTsgICAgICAgICAgICAgICAgICAgIDxnIGlkPSJHcnVwcGVfMTYxIiBzdHJva2Utd2lkdGg9IjEiIGZpbGwtcnVsZT0iZXZlbm9kZCI+JiN4YTsgICAgICAgICAgICAgICAgICAgICAgICA8ZyBpZD0iVmVyZWluaWd1bmdzbWVuZ2VfNiIgdHJhbnNmb3JtPSJ0cmFuc2xhdGUoOS4wMDEwMDAsIDExLjAwMDAwMCkiIGZpbGwtcnVsZT0ibm9uemVybyI+JiN4YTsgICAgICAgICAgICAgICAgICAgICAgICAgICAgPHBhdGggZD0iTTEzLjgwODgzNzksMTMuNTAwMzY2MiBMNC4xMzQzOTk0MSwxMy41MDAzNjYyIEw0LjAzMzkzNTU1LDEzLjQ5NDkzNDEgQzIuMDUyMTI0MDIsMTMuMzg3ODE3NCAwLjQ5OTYzMzc4OSwxMS43MTc0MDcyIDAuNDk5NjMzNzg5LDkuNjkyMTM4NjcgQzAuNDk5NjMzNzg5LDcuOTUxODQzMjYgMS42NTMxOTgyNCw2LjQzNTM2Mzc3IDMuMzA0OTMxNjQsNi4wMDQ0NTU1NyBMMy42ODgxMTAzNSw1LjkwNDQ3OTk4IEwzLjY3ODU4ODg3LDUuNTA4NTQ0OTIgQzMuNjc3NjEyMyw1LjQ2NzA0MTAyIDMuNjc2NzU3ODEsNS40MjY0NTI2NCAzLjY3Njc1NzgxLDUuMzg0OTQ4NzMgQzMuNjc2NzU3ODEsMi42OTEyODQxOCA1LjgyNzE0ODQ0LDAuNDk5ODc3OTMgOC40NzAzMzY5MSwwLjQ5OTg3NzkzIEMxMS4xMTQwMTM3LDAuNDk5ODc3OTMgMTMuMjY0ODkyNiwyLjY5MTI4NDE4IDEzLjI2NDg5MjYsNS4zODQ5NDg3MyBMMTMuMjY0ODkyNiw1Ljg4NDk0ODczIEwxMy43NjQ4OTI2LDUuODg0OTQ4NzMgQzE1LjgyNDM0MDgsNS44ODQ5NDg3MyAxNy40OTk3NTU5LDcuNTkyODM0NDcgMTcuNDk5NzU1OSw5LjY5MjEzODY3IEMxNy40OTk3NTU5LDEwLjY5NTM3MzUgMTcuMTIwMzYxMywxMS42NDIyNzI5IDE2LjQzMTM5NjUsMTIuMzU4NDU5NSBDMTUuNzQ1NjA1NSwxMy4wNzEyMjggMTQuODI5NzExOSwxMy40NzY0NDA0IDEzLjg1MjQxNywxMy40OTkzMjg2IEwxMy44MDg4Mzc5LDEzLjUwMDM2NjIgWiIgaWQ9IlBhdGgiLz4mI3hhOyAgICAgICAgICAgICAgICAgICAgICAgICAgICA8cGF0aCBkPSJNMTMuODAyNzM0NCwxMy4wMDAzNjYyIEwxMy44NDA2OTgyLDEyLjk5OTQ1MDcgQzE0LjY4NTMwMjcsMTIuOTc5Njc1MyAxNS40Nzc0MTcsMTIuNjI4OTA2MiAxNi4wNzEwNDQ5LDEyLjAxMTg0MDggQzE2LjY2OTkyMTksMTEuMzg5MjgyMiAxNi45OTk3NTU5LDEwLjU2NTQ5MDcgMTYuOTk5NzU1OSw5LjY5MjEzODY3IEMxNi45OTk3NTU5LDcuODY4NTMwMjcgMTUuNTQ4NTg0LDYuMzg0OTQ4NzMgMTMuNzY0ODkyNiw2LjM4NDk0ODczIEwxMi43NjQ4OTI2LDYuMzg0OTQ4NzMgTDEyLjc2NDg5MjYsNS4zODQ5NDg3MyBDMTIuNzY0ODkyNiwyLjk2NzA0MTAyIDEwLjgzODM3ODksMC45OTk4Nzc5MyA4LjQ3MDMzNjkxLDAuOTk5ODc3OTMgQzYuMTAyOTA1MjcsMC45OTk4Nzc5MyA0LjE3Njc1NzgxLDIuOTY3MDQxMDIgNC4xNzY3NTc4MSw1LjM4NDk0ODczIEM0LjE3Njc1NzgxLDUuNDIyMzYzMjggNC4xNzc0OTAyMyw1LjQ1OTA0NTQxIDQuMTc4NDY2OCw1LjQ5NjUyMSBMNC4xOTc1MDk3Nyw2LjI4ODI2OTA0IEwzLjQzMTE1MjM0LDYuNDg4MjIwMjEgQzEuOTk5NTExNzIsNi44NjE3NTUzNyAwLjk5OTYzMzc4OSw4LjE3OTI2MDI1IDAuOTk5NjMzNzg5LDkuNjkyMTM4NjcgQzAuOTk5NjMzNzg5LDExLjQ1MTc4MjIgMi4zNDQzNjAzNSwxMi45MDI4MzIgNC4wNjA5MTMwOSwxMi45OTU2NjY1IEw0LjE0NzgyNzE1LDEzLjAwMDM2NjIgTDEzLjgwMjczNDQsMTMuMDAwMzY2MiBNMTMuODY0MDEzNywxNC4wMDAzNjYyIEw0LjAwNzY5MDQzLDE0LjAwMDM2NjIgTDQuMDA2OTU4MDEsMTMuOTk0MjAxNyBDMS43NzM2ODE2NCwxMy44NzM0NzQxIC0wLjAwMDM2NjIxMDkzOCwxMS45OTM2NTIzIC0wLjAwMDM2NjIxMDkzOCw5LjY5MjEzODY3IEMtMC4wMDAzNjYyMTA5MzgsNy42ODM4OTg5MyAxLjM1MDk1MjE1LDUuOTk3NDk3NTYgMy4xNzg3MTA5NCw1LjUyMDYyOTg4IEMzLjE3NzYxMjMsNS40NzUwMzY2MiAzLjE3Njc1NzgxLDUuNDMwNDgwOTYgMy4xNzY3NTc4MSw1LjM4NDk0ODczIEMzLjE3Njc1NzgxLDIuNDEwMzM5MzYgNS41NDY2MzA4NiwtMC4wMDAxMjIwNzAzMTIgOC40NzAzMzY5MSwtMC4wMDAxMjIwNzAzMTIgQzExLjM5NDg5NzUsLTAuMDAwMTIyMDcwMzEyIDEzLjc2NDg5MjYsMi40MTAzMzkzNiAxMy43NjQ4OTI2LDUuMzg0OTQ4NzMgQzE2LjEwMzM5MzYsNS4zODQ5NDg3MyAxNy45OTk3NTU5LDcuMzEyNzQ0MTQgMTcuOTk5NzU1OSw5LjY5MjEzODY3IEMxNy45OTk3NTU5LDEyLjAzNzc4MDggMTYuMTU2NzM4MywxMy45NDU0MzQ2IDEzLjg2NDEzNTcsMTMuOTk5MjA2NSBMMTMuODY0MDEzNywxNC4wMDAzNjYyIFoiIGlkPSJTaGFwZSIgZmlsbD0iIzAwN0RCOCIvPiYjeGE7ICAgICAgICAgICAgICAgICAgICAgICAgPC9nPiYjeGE7ICAgICAgICAgICAgICAgICAgICAgICAgPHJlY3QgaWQ9IlJlY2h0ZWNrXzE2MjciIHg9IjAiIHk9IjAiIHdpZHRoPSIzNiIgaGVpZ2h0PSIzNiIvPiYjeGE7ICAgICAgICAgICAgICAgICAgICA8L2c+JiN4YTsgICAgICAgICAgICAgICAgPC9nPiYjeGE7ICAgICAgICAgICAgPC9nPiYjeGE7ICAgICAgICA8L2c+JiN4YTsgICAgPC9nPiYjeGE7PC9zdmc+;" vertex="1" parent="1">
          <mxGeometry x="100" y="120" width="36" height="36" as="geometry" />
        </mxCell>
        <mxCell id="tOn2bwrpuCFC1Trtvur6-14" style="edgeStyle=orthogonalEdgeStyle;rounded=0;orthogonalLoop=1;jettySize=auto;html=1;entryX=0;entryY=0.5;entryDx=0;entryDy=0;entryPerimeter=0;fontSize=15;" edge="1" parent="1" source="tOn2bwrpuCFC1Trtvur6-8" target="tOn2bwrpuCFC1Trtvur6-10">
          <mxGeometry relative="1" as="geometry" />
        </mxCell>
        <mxCell id="tOn2bwrpuCFC1Trtvur6-8" value="" style="shape=image;verticalLabelPosition=bottom;labelBackgroundColor=#ffffff;verticalAlign=top;aspect=fixed;imageAspect=0;image=data:image/svg+xml,PHN2ZyB4bWxucz0iaHR0cDovL3d3dy53My5vcmcvMjAwMC9zdmciIHhtbG5zOnhsaW5rPSJodHRwOi8vd3d3LnczLm9yZy8xOTk5L3hsaW5rIiB3aWR0aD0iNDQiIGhlaWdodD0iNDgiIHZpZXdCb3g9IjAgLTQgNDQgNDgiIHZlcnNpb249IjEuMSI+JiN4YTsgICAgPHRpdGxlPmZvbGRlck5ldzwvdGl0bGU+JiN4YTsgICAgPGRlZnM+JiN4YTsgICAgICAgIDxyZWN0IGlkPSJwYXRoLTEiIHg9IjAiIHk9IjAiIHdpZHRoPSI0NCIgaGVpZ2h0PSI0NCIvPiYjeGE7ICAgIDwvZGVmcz4mI3hhOyAgICA8ZyBpZD0iUGFnZS0xIiBzdHJva2U9Im5vbmUiIHN0cm9rZS13aWR0aD0iMSIgZmlsbD0ibm9uZSIgZmlsbC1ydWxlPSJldmVub2RkIj4mI3hhOyAgICAgICAgPGcgaWQ9Ik1hc2siPiYjeGE7ICAgICAgICAgICAgPG1hc2sgaWQ9Im1hc2stMiIgZmlsbD0id2hpdGUiPiYjeGE7ICAgICAgICAgICAgICAgIDx1c2UgeGxpbms6aHJlZj0iI3BhdGgtMSIvPiYjeGE7ICAgICAgICAgICAgPC9tYXNrPiYjeGE7ICAgICAgICAgICAgPGcgaWQ9IlJlY3RhbmdsZSIvPiYjeGE7ICAgICAgICAgICAgPGcgaWQ9Imljbi1Gb2xkZXItTmV3LTQyeDQyIiBtYXNrPSJ1cmwoI21hc2stMikiPiYjeGE7ICAgICAgICAgICAgICAgIDxnIHRyYW5zZm9ybT0idHJhbnNsYXRlKDAuMDAwMDAwLCAtNC4wMDAwMDApIj4mI3hhOyAgICAgICAgICAgICAgICAgICAgPHJlY3QgaWQ9IlJlY3RhbmdsZSIgZmlsbC1ydWxlPSJub256ZXJvIiB4PSIwIiB5PSI0IiB3aWR0aD0iNDQiIGhlaWdodD0iNDQiLz4mI3hhOyAgICAgICAgICAgICAgICAgICAgPGcgaWQ9IkdydXBwZV8xNjYiIHN0cm9rZS13aWR0aD0iMSIgZmlsbC1ydWxlPSJldmVub2RkIiB0cmFuc2Zvcm09InRyYW5zbGF0ZSgxLjAwMDAwMCwgMC4wMDAwMDApIj4mI3hhOyAgICAgICAgICAgICAgICAgICAgICAgIDxnIGlkPSJHcnVwcGVfMTYwIiB0cmFuc2Zvcm09InRyYW5zbGF0ZSgyLjAwMDAwMCwgNS4wMDAwMDApIiBmaWxsLXJ1bGU9Im5vbnplcm8iPiYjeGE7ICAgICAgICAgICAgICAgICAgICAgICAgICAgIDxnIGlkPSJHcnVwcGVfNzIiIHRyYW5zZm9ybT0idHJhbnNsYXRlKDEwLjAwMDAwMCwgMTAuMDAwMDAwKSI+JiN4YTsgICAgICAgICAgICAgICAgICAgICAgICAgICAgICAgIDxwYXRoIGQ9Ik0yNi41MDcsMjAuMDM0MDc3IEwxLjQ5MywyMC4wMzQwNzcgQzEuMTAxMDA0MDQsMjAuMDM3OTk4NSAwLjcyMzQ3Njk0NSwxOS44ODYxMDMgMC40NDM0ODA3MTEsMTkuNjExNzMyOSBDMC4xNjM0ODQ0NzcsMTkuMzM3MzYyOSAwLjAwMzk1ODEyMjUyLDE4Ljk2Mjk5NjQgMCwxOC41NzEgTDAsMS40NjMgQzAuMDAzOTU4MTIyNTIsMS4wNzEwMDM2MyAwLjE2MzQ4NDQ3NywwLjY5NjYzNzEwOSAwLjQ0MzQ4MDcxMSwwLjQyMjI2NzA1NSBDMC43MjM0NzY5NDUsMC4xNDc4OTcwMDIgMS4xMDEwMDQwNCwtMC4wMDM5OTg0OTc3OSAxLjQ5MywtNy42OTg4MjA5NWUtMDUgTDguNTU0LC03LjY5ODgyMDk1ZS0wNSBDOS4wODk0MTc5MiwtMC4wMDExNjk4NjkyOCA5LjU4NDg2Mzg5LDAuMjgzMTM5ODk2IDkuODU0LDAuNzQ2IEwxMC42NzgsMS42NjcgQzEwLjk0NzEzNjEsMi4xMjk4NjAxIDExLjQ0MjU4MjEsMi40MTQxNjk4NyAxMS45NzgsMi40MTMgTDI2LjUwNywyLjQxMyBDMjYuODk4OTk2LDIuNDA5MDAxNSAyNy4yNzY1MjMxLDIuNTYwODk3IDI3LjU1NjUxOTMsMi44MzUyNjcwNiBDMjcuODM2NTE1NSwzLjEwOTYzNzExIDI3Ljk5NjA0MTksMy40ODQwMDM2MyAyOCwzLjg3NiBMMjgsMTkuMDg1IEMyOCwxOS44OTMgMjcuMzMxLDIwLjAzNDA3NyAyNi41MDcsMjAuMDM0MDc3IFoiIGlkPSJQZmFkXzQwMSIgZmlsbD0iIzk1RERGRCIvPiYjeGE7ICAgICAgICAgICAgICAgICAgICAgICAgICAgICAgICA8cmVjdCBpZD0iUmVjaHRlY2tfMzIiIGZpbGw9IiM2RUNGRjkiIHg9IjAiIHk9IjQiIHdpZHRoPSIyOCIgaGVpZ2h0PSIxOCIgcng9IjMiLz4mI3hhOyAgICAgICAgICAgICAgICAgICAgICAgICAgICA8L2c+JiN4YTsgICAgICAgICAgICAgICAgICAgICAgICA8L2c+JiN4YTsgICAgICAgICAgICAgICAgICAgICAgICA8cmVjdCBpZD0iUmVjaHRlY2tfMTYzMSIgeD0iMCIgeT0iMCIgd2lkdGg9IjQyIiBoZWlnaHQ9IjQyIi8+JiN4YTsgICAgICAgICAgICAgICAgICAgIDwvZz4mI3hhOyAgICAgICAgICAgICAgICA8L2c+JiN4YTsgICAgICAgICAgICA8L2c+JiN4YTsgICAgICAgIDwvZz4mI3hhOyAgICA8L2c+JiN4YTs8L3N2Zz4=;" vertex="1" parent="1">
          <mxGeometry x="350" y="120" width="119.17" height="130" as="geometry" />
        </mxCell>
        <mxCell id="tOn2bwrpuCFC1Trtvur6-9" value="" style="shape=image;verticalLabelPosition=bottom;labelBackgroundColor=#ffffff;verticalAlign=top;aspect=fixed;imageAspect=0;image=data:image/svg+xml,PHN2ZyB4bWxucz0iaHR0cDovL3d3dy53My5vcmcvMjAwMC9zdmciIHhtbG5zOnhsaW5rPSJodHRwOi8vd3d3LnczLm9yZy8xOTk5L3hsaW5rIiB3aWR0aD0iMzYiIGhlaWdodD0iMzYiIHZpZXdCb3g9Ii05IC05IDM2IDM2IiB2ZXJzaW9uPSIxLjEiPiYjeGE7ICAgIDx0aXRsZT5VbnRpdGxlZDwvdGl0bGU+JiN4YTsgICAgPGRlZnM+JiN4YTsgICAgICAgIDxyZWN0IGlkPSJwYXRoLTEiIHg9IjAiIHk9IjAiIHdpZHRoPSIxOCIgaGVpZ2h0PSIxOCIvPiYjeGE7ICAgIDwvZGVmcz4mI3hhOyAgICA8ZyBpZD0iUGFnZS0xIiBzdHJva2U9Im5vbmUiIHN0cm9rZS13aWR0aD0iMSIgZmlsbD0ibm9uZSIgZmlsbC1ydWxlPSJldmVub2RkIj4mI3hhOyAgICAgICAgPGcgaWQ9Imljbi1DbG91ZC0zNngzNiI+JiN4YTsgICAgICAgICAgICA8bWFzayBpZD0ibWFzay0yIiBmaWxsPSJ3aGl0ZSI+JiN4YTsgICAgICAgICAgICAgICAgPHVzZSB4bGluazpocmVmPSIjcGF0aC0xIi8+JiN4YTsgICAgICAgICAgICA8L21hc2s+JiN4YTsgICAgICAgICAgICA8ZyBpZD0iUmVjdGFuZ2xlIi8+JiN4YTsgICAgICAgICAgICA8ZyBtYXNrPSJ1cmwoI21hc2stMikiPiYjeGE7ICAgICAgICAgICAgICAgIDxnIHRyYW5zZm9ybT0idHJhbnNsYXRlKC05LjAwMDAwMCwgLTkuMDAwMDAwKSI+JiN4YTsgICAgICAgICAgICAgICAgICAgIDxyZWN0IGlkPSJSZWN0YW5nbGUiIGZpbGwtcnVsZT0ibm9uemVybyIgeD0iOSIgeT0iOSIgd2lkdGg9IjE4IiBoZWlnaHQ9IjE4Ii8+JiN4YTsgICAgICAgICAgICAgICAgICAgIDxnIGlkPSJHcnVwcGVfMTYxIiBzdHJva2Utd2lkdGg9IjEiIGZpbGwtcnVsZT0iZXZlbm9kZCI+JiN4YTsgICAgICAgICAgICAgICAgICAgICAgICA8ZyBpZD0iVmVyZWluaWd1bmdzbWVuZ2VfNiIgdHJhbnNmb3JtPSJ0cmFuc2xhdGUoOS4wMDEwMDAsIDExLjAwMDAwMCkiIGZpbGwtcnVsZT0ibm9uemVybyI+JiN4YTsgICAgICAgICAgICAgICAgICAgICAgICAgICAgPHBhdGggZD0iTTEzLjgwODgzNzksMTMuNTAwMzY2MiBMNC4xMzQzOTk0MSwxMy41MDAzNjYyIEw0LjAzMzkzNTU1LDEzLjQ5NDkzNDEgQzIuMDUyMTI0MDIsMTMuMzg3ODE3NCAwLjQ5OTYzMzc4OSwxMS43MTc0MDcyIDAuNDk5NjMzNzg5LDkuNjkyMTM4NjcgQzAuNDk5NjMzNzg5LDcuOTUxODQzMjYgMS42NTMxOTgyNCw2LjQzNTM2Mzc3IDMuMzA0OTMxNjQsNi4wMDQ0NTU1NyBMMy42ODgxMTAzNSw1LjkwNDQ3OTk4IEwzLjY3ODU4ODg3LDUuNTA4NTQ0OTIgQzMuNjc3NjEyMyw1LjQ2NzA0MTAyIDMuNjc2NzU3ODEsNS40MjY0NTI2NCAzLjY3Njc1NzgxLDUuMzg0OTQ4NzMgQzMuNjc2NzU3ODEsMi42OTEyODQxOCA1LjgyNzE0ODQ0LDAuNDk5ODc3OTMgOC40NzAzMzY5MSwwLjQ5OTg3NzkzIEMxMS4xMTQwMTM3LDAuNDk5ODc3OTMgMTMuMjY0ODkyNiwyLjY5MTI4NDE4IDEzLjI2NDg5MjYsNS4zODQ5NDg3MyBMMTMuMjY0ODkyNiw1Ljg4NDk0ODczIEwxMy43NjQ4OTI2LDUuODg0OTQ4NzMgQzE1LjgyNDM0MDgsNS44ODQ5NDg3MyAxNy40OTk3NTU5LDcuNTkyODM0NDcgMTcuNDk5NzU1OSw5LjY5MjEzODY3IEMxNy40OTk3NTU5LDEwLjY5NTM3MzUgMTcuMTIwMzYxMywxMS42NDIyNzI5IDE2LjQzMTM5NjUsMTIuMzU4NDU5NSBDMTUuNzQ1NjA1NSwxMy4wNzEyMjggMTQuODI5NzExOSwxMy40NzY0NDA0IDEzLjg1MjQxNywxMy40OTkzMjg2IEwxMy44MDg4Mzc5LDEzLjUwMDM2NjIgWiIgaWQ9IlBhdGgiLz4mI3hhOyAgICAgICAgICAgICAgICAgICAgICAgICAgICA8cGF0aCBkPSJNMTMuODAyNzM0NCwxMy4wMDAzNjYyIEwxMy44NDA2OTgyLDEyLjk5OTQ1MDcgQzE0LjY4NTMwMjcsMTIuOTc5Njc1MyAxNS40Nzc0MTcsMTIuNjI4OTA2MiAxNi4wNzEwNDQ5LDEyLjAxMTg0MDggQzE2LjY2OTkyMTksMTEuMzg5MjgyMiAxNi45OTk3NTU5LDEwLjU2NTQ5MDcgMTYuOTk5NzU1OSw5LjY5MjEzODY3IEMxNi45OTk3NTU5LDcuODY4NTMwMjcgMTUuNTQ4NTg0LDYuMzg0OTQ4NzMgMTMuNzY0ODkyNiw2LjM4NDk0ODczIEwxMi43NjQ4OTI2LDYuMzg0OTQ4NzMgTDEyLjc2NDg5MjYsNS4zODQ5NDg3MyBDMTIuNzY0ODkyNiwyLjk2NzA0MTAyIDEwLjgzODM3ODksMC45OTk4Nzc5MyA4LjQ3MDMzNjkxLDAuOTk5ODc3OTMgQzYuMTAyOTA1MjcsMC45OTk4Nzc5MyA0LjE3Njc1NzgxLDIuOTY3MDQxMDIgNC4xNzY3NTc4MSw1LjM4NDk0ODczIEM0LjE3Njc1NzgxLDUuNDIyMzYzMjggNC4xNzc0OTAyMyw1LjQ1OTA0NTQxIDQuMTc4NDY2OCw1LjQ5NjUyMSBMNC4xOTc1MDk3Nyw2LjI4ODI2OTA0IEwzLjQzMTE1MjM0LDYuNDg4MjIwMjEgQzEuOTk5NTExNzIsNi44NjE3NTUzNyAwLjk5OTYzMzc4OSw4LjE3OTI2MDI1IDAuOTk5NjMzNzg5LDkuNjkyMTM4NjcgQzAuOTk5NjMzNzg5LDExLjQ1MTc4MjIgMi4zNDQzNjAzNSwxMi45MDI4MzIgNC4wNjA5MTMwOSwxMi45OTU2NjY1IEw0LjE0NzgyNzE1LDEzLjAwMDM2NjIgTDEzLjgwMjczNDQsMTMuMDAwMzY2MiBNMTMuODY0MDEzNywxNC4wMDAzNjYyIEw0LjAwNzY5MDQzLDE0LjAwMDM2NjIgTDQuMDA2OTU4MDEsMTMuOTk0MjAxNyBDMS43NzM2ODE2NCwxMy44NzM0NzQxIC0wLjAwMDM2NjIxMDkzOCwxMS45OTM2NTIzIC0wLjAwMDM2NjIxMDkzOCw5LjY5MjEzODY3IEMtMC4wMDAzNjYyMTA5MzgsNy42ODM4OTg5MyAxLjM1MDk1MjE1LDUuOTk3NDk3NTYgMy4xNzg3MTA5NCw1LjUyMDYyOTg4IEMzLjE3NzYxMjMsNS40NzUwMzY2MiAzLjE3Njc1NzgxLDUuNDMwNDgwOTYgMy4xNzY3NTc4MSw1LjM4NDk0ODczIEMzLjE3Njc1NzgxLDIuNDEwMzM5MzYgNS41NDY2MzA4NiwtMC4wMDAxMjIwNzAzMTIgOC40NzAzMzY5MSwtMC4wMDAxMjIwNzAzMTIgQzExLjM5NDg5NzUsLTAuMDAwMTIyMDcwMzEyIDEzLjc2NDg5MjYsMi40MTAzMzkzNiAxMy43NjQ4OTI2LDUuMzg0OTQ4NzMgQzE2LjEwMzM5MzYsNS4zODQ5NDg3MyAxNy45OTk3NTU5LDcuMzEyNzQ0MTQgMTcuOTk5NzU1OSw5LjY5MjEzODY3IEMxNy45OTk3NTU5LDEyLjAzNzc4MDggMTYuMTU2NzM4MywxMy45NDU0MzQ2IDEzLjg2NDEzNTcsMTMuOTk5MjA2NSBMMTMuODY0MDEzNywxNC4wMDAzNjYyIFoiIGlkPSJTaGFwZSIgZmlsbD0iIzAwN0RCOCIvPiYjeGE7ICAgICAgICAgICAgICAgICAgICAgICAgPC9nPiYjeGE7ICAgICAgICAgICAgICAgICAgICAgICAgPHJlY3QgaWQ9IlJlY2h0ZWNrXzE2MjciIHg9IjAiIHk9IjAiIHdpZHRoPSIzNiIgaGVpZ2h0PSIzNiIvPiYjeGE7ICAgICAgICAgICAgICAgICAgICA8L2c+JiN4YTsgICAgICAgICAgICAgICAgPC9nPiYjeGE7ICAgICAgICAgICAgPC9nPiYjeGE7ICAgICAgICA8L2c+JiN4YTsgICAgPC9nPiYjeGE7PC9zdmc+;" vertex="1" parent="1">
          <mxGeometry x="407" y="120" width="36" height="36" as="geometry" />
        </mxCell>
        <mxCell id="tOn2bwrpuCFC1Trtvur6-10" value="" style="shape=note;whiteSpace=wrap;html=1;backgroundOutline=1;darkOpacity=0.05;fontSize=15;align=left;" vertex="1" parent="1">
          <mxGeometry x="650" y="152.5" width="60" height="65" as="geometry" />
        </mxCell>
        <mxCell id="tOn2bwrpuCFC1Trtvur6-11" value="" style="shape=image;verticalLabelPosition=bottom;labelBackgroundColor=#ffffff;verticalAlign=top;aspect=fixed;imageAspect=0;image=data:image/svg+xml,PHN2ZyB4bWxucz0iaHR0cDovL3d3dy53My5vcmcvMjAwMC9zdmciIHhtbG5zOnhsaW5rPSJodHRwOi8vd3d3LnczLm9yZy8xOTk5L3hsaW5rIiB3aWR0aD0iMzYiIGhlaWdodD0iMzYiIHZpZXdCb3g9Ii05IC05IDM2IDM2IiB2ZXJzaW9uPSIxLjEiPiYjeGE7ICAgIDx0aXRsZT5VbnRpdGxlZDwvdGl0bGU+JiN4YTsgICAgPGRlZnM+JiN4YTsgICAgICAgIDxyZWN0IGlkPSJwYXRoLTEiIHg9IjAiIHk9IjAiIHdpZHRoPSIxOCIgaGVpZ2h0PSIxOCIvPiYjeGE7ICAgIDwvZGVmcz4mI3hhOyAgICA8ZyBpZD0iUGFnZS0xIiBzdHJva2U9Im5vbmUiIHN0cm9rZS13aWR0aD0iMSIgZmlsbD0ibm9uZSIgZmlsbC1ydWxlPSJldmVub2RkIj4mI3hhOyAgICAgICAgPGcgaWQ9Imljbi1DbG91ZC0zNngzNiI+JiN4YTsgICAgICAgICAgICA8bWFzayBpZD0ibWFzay0yIiBmaWxsPSJ3aGl0ZSI+JiN4YTsgICAgICAgICAgICAgICAgPHVzZSB4bGluazpocmVmPSIjcGF0aC0xIi8+JiN4YTsgICAgICAgICAgICA8L21hc2s+JiN4YTsgICAgICAgICAgICA8ZyBpZD0iUmVjdGFuZ2xlIi8+JiN4YTsgICAgICAgICAgICA8ZyBtYXNrPSJ1cmwoI21hc2stMikiPiYjeGE7ICAgICAgICAgICAgICAgIDxnIHRyYW5zZm9ybT0idHJhbnNsYXRlKC05LjAwMDAwMCwgLTkuMDAwMDAwKSI+JiN4YTsgICAgICAgICAgICAgICAgICAgIDxyZWN0IGlkPSJSZWN0YW5nbGUiIGZpbGwtcnVsZT0ibm9uemVybyIgeD0iOSIgeT0iOSIgd2lkdGg9IjE4IiBoZWlnaHQ9IjE4Ii8+JiN4YTsgICAgICAgICAgICAgICAgICAgIDxnIGlkPSJHcnVwcGVfMTYxIiBzdHJva2Utd2lkdGg9IjEiIGZpbGwtcnVsZT0iZXZlbm9kZCI+JiN4YTsgICAgICAgICAgICAgICAgICAgICAgICA8ZyBpZD0iVmVyZWluaWd1bmdzbWVuZ2VfNiIgdHJhbnNmb3JtPSJ0cmFuc2xhdGUoOS4wMDEwMDAsIDExLjAwMDAwMCkiIGZpbGwtcnVsZT0ibm9uemVybyI+JiN4YTsgICAgICAgICAgICAgICAgICAgICAgICAgICAgPHBhdGggZD0iTTEzLjgwODgzNzksMTMuNTAwMzY2MiBMNC4xMzQzOTk0MSwxMy41MDAzNjYyIEw0LjAzMzkzNTU1LDEzLjQ5NDkzNDEgQzIuMDUyMTI0MDIsMTMuMzg3ODE3NCAwLjQ5OTYzMzc4OSwxMS43MTc0MDcyIDAuNDk5NjMzNzg5LDkuNjkyMTM4NjcgQzAuNDk5NjMzNzg5LDcuOTUxODQzMjYgMS42NTMxOTgyNCw2LjQzNTM2Mzc3IDMuMzA0OTMxNjQsNi4wMDQ0NTU1NyBMMy42ODgxMTAzNSw1LjkwNDQ3OTk4IEwzLjY3ODU4ODg3LDUuNTA4NTQ0OTIgQzMuNjc3NjEyMyw1LjQ2NzA0MTAyIDMuNjc2NzU3ODEsNS40MjY0NTI2NCAzLjY3Njc1NzgxLDUuMzg0OTQ4NzMgQzMuNjc2NzU3ODEsMi42OTEyODQxOCA1LjgyNzE0ODQ0LDAuNDk5ODc3OTMgOC40NzAzMzY5MSwwLjQ5OTg3NzkzIEMxMS4xMTQwMTM3LDAuNDk5ODc3OTMgMTMuMjY0ODkyNiwyLjY5MTI4NDE4IDEzLjI2NDg5MjYsNS4zODQ5NDg3MyBMMTMuMjY0ODkyNiw1Ljg4NDk0ODczIEwxMy43NjQ4OTI2LDUuODg0OTQ4NzMgQzE1LjgyNDM0MDgsNS44ODQ5NDg3MyAxNy40OTk3NTU5LDcuNTkyODM0NDcgMTcuNDk5NzU1OSw5LjY5MjEzODY3IEMxNy40OTk3NTU5LDEwLjY5NTM3MzUgMTcuMTIwMzYxMywxMS42NDIyNzI5IDE2LjQzMTM5NjUsMTIuMzU4NDU5NSBDMTUuNzQ1NjA1NSwxMy4wNzEyMjggMTQuODI5NzExOSwxMy40NzY0NDA0IDEzLjg1MjQxNywxMy40OTkzMjg2IEwxMy44MDg4Mzc5LDEzLjUwMDM2NjIgWiIgaWQ9IlBhdGgiLz4mI3hhOyAgICAgICAgICAgICAgICAgICAgICAgICAgICA8cGF0aCBkPSJNMTMuODAyNzM0NCwxMy4wMDAzNjYyIEwxMy44NDA2OTgyLDEyLjk5OTQ1MDcgQzE0LjY4NTMwMjcsMTIuOTc5Njc1MyAxNS40Nzc0MTcsMTIuNjI4OTA2MiAxNi4wNzEwNDQ5LDEyLjAxMTg0MDggQzE2LjY2OTkyMTksMTEuMzg5MjgyMiAxNi45OTk3NTU5LDEwLjU2NTQ5MDcgMTYuOTk5NzU1OSw5LjY5MjEzODY3IEMxNi45OTk3NTU5LDcuODY4NTMwMjcgMTUuNTQ4NTg0LDYuMzg0OTQ4NzMgMTMuNzY0ODkyNiw2LjM4NDk0ODczIEwxMi43NjQ4OTI2LDYuMzg0OTQ4NzMgTDEyLjc2NDg5MjYsNS4zODQ5NDg3MyBDMTIuNzY0ODkyNiwyLjk2NzA0MTAyIDEwLjgzODM3ODksMC45OTk4Nzc5MyA4LjQ3MDMzNjkxLDAuOTk5ODc3OTMgQzYuMTAyOTA1MjcsMC45OTk4Nzc5MyA0LjE3Njc1NzgxLDIuOTY3MDQxMDIgNC4xNzY3NTc4MSw1LjM4NDk0ODczIEM0LjE3Njc1NzgxLDUuNDIyMzYzMjggNC4xNzc0OTAyMyw1LjQ1OTA0NTQxIDQuMTc4NDY2OCw1LjQ5NjUyMSBMNC4xOTc1MDk3Nyw2LjI4ODI2OTA0IEwzLjQzMTE1MjM0LDYuNDg4MjIwMjEgQzEuOTk5NTExNzIsNi44NjE3NTUzNyAwLjk5OTYzMzc4OSw4LjE3OTI2MDI1IDAuOTk5NjMzNzg5LDkuNjkyMTM4NjcgQzAuOTk5NjMzNzg5LDExLjQ1MTc4MjIgMi4zNDQzNjAzNSwxMi45MDI4MzIgNC4wNjA5MTMwOSwxMi45OTU2NjY1IEw0LjE0NzgyNzE1LDEzLjAwMDM2NjIgTDEzLjgwMjczNDQsMTMuMDAwMzY2MiBNMTMuODY0MDEzNywxNC4wMDAzNjYyIEw0LjAwNzY5MDQzLDE0LjAwMDM2NjIgTDQuMDA2OTU4MDEsMTMuOTk0MjAxNyBDMS43NzM2ODE2NCwxMy44NzM0NzQxIC0wLjAwMDM2NjIxMDkzOCwxMS45OTM2NTIzIC0wLjAwMDM2NjIxMDkzOCw5LjY5MjEzODY3IEMtMC4wMDAzNjYyMTA5MzgsNy42ODM4OTg5MyAxLjM1MDk1MjE1LDUuOTk3NDk3NTYgMy4xNzg3MTA5NCw1LjUyMDYyOTg4IEMzLjE3NzYxMjMsNS40NzUwMzY2MiAzLjE3Njc1NzgxLDUuNDMwNDgwOTYgMy4xNzY3NTc4MSw1LjM4NDk0ODczIEMzLjE3Njc1NzgxLDIuNDEwMzM5MzYgNS41NDY2MzA4NiwtMC4wMDAxMjIwNzAzMTIgOC40NzAzMzY5MSwtMC4wMDAxMjIwNzAzMTIgQzExLjM5NDg5NzUsLTAuMDAwMTIyMDcwMzEyIDEzLjc2NDg5MjYsMi40MTAzMzkzNiAxMy43NjQ4OTI2LDUuMzg0OTQ4NzMgQzE2LjEwMzM5MzYsNS4zODQ5NDg3MyAxNy45OTk3NTU5LDcuMzEyNzQ0MTQgMTcuOTk5NzU1OSw5LjY5MjEzODY3IEMxNy45OTk3NTU5LDEyLjAzNzc4MDggMTYuMTU2NzM4MywxMy45NDU0MzQ2IDEzLjg2NDEzNTcsMTMuOTk5MjA2NSBMMTMuODY0MDEzNywxNC4wMDAzNjYyIFoiIGlkPSJTaGFwZSIgZmlsbD0iIzAwN0RCOCIvPiYjeGE7ICAgICAgICAgICAgICAgICAgICAgICAgPC9nPiYjeGE7ICAgICAgICAgICAgICAgICAgICAgICAgPHJlY3QgaWQ9IlJlY2h0ZWNrXzE2MjciIHg9IjAiIHk9IjAiIHdpZHRoPSIzNiIgaGVpZ2h0PSIzNiIvPiYjeGE7ICAgICAgICAgICAgICAgICAgICA8L2c+JiN4YTsgICAgICAgICAgICAgICAgPC9nPiYjeGE7ICAgICAgICAgICAgPC9nPiYjeGE7ICAgICAgICA8L2c+JiN4YTsgICAgPC9nPiYjeGE7PC9zdmc+;" vertex="1" parent="1">
          <mxGeometry x="662" y="120" width="36" height="36" as="geometry" />
        </mxCell>
        <mxCell id="tOn2bwrpuCFC1Trtvur6-15" value="" style="edgeStyle=orthogonalEdgeStyle;rounded=0;orthogonalLoop=1;jettySize=auto;html=1;fontSize=15;entryX=0;entryY=0.5;entryDx=0;entryDy=0;" edge="1" source="tOn2bwrpuCFC1Trtvur6-16" target="tOn2bwrpuCFC1Trtvur6-19" parent="1">
          <mxGeometry relative="1" as="geometry">
            <mxPoint x="264.7550000000001" y="375" as="targetPoint" />
          </mxGeometry>
        </mxCell>
        <mxCell id="tOn2bwrpuCFC1Trtvur6-16" value="" style="shape=image;verticalLabelPosition=bottom;labelBackgroundColor=#ffffff;verticalAlign=top;aspect=fixed;imageAspect=0;image=data:image/svg+xml,PHN2ZyB4bWxucz0iaHR0cDovL3d3dy53My5vcmcvMjAwMC9zdmciIHhtbG5zOnhsaW5rPSJodHRwOi8vd3d3LnczLm9yZy8xOTk5L3hsaW5rIiB3aWR0aD0iNDQiIGhlaWdodD0iNDgiIHZpZXdCb3g9IjAgLTQgNDQgNDgiIHZlcnNpb249IjEuMSI+JiN4YTsgICAgPHRpdGxlPmZvbGRlck5ldzwvdGl0bGU+JiN4YTsgICAgPGRlZnM+JiN4YTsgICAgICAgIDxyZWN0IGlkPSJwYXRoLTEiIHg9IjAiIHk9IjAiIHdpZHRoPSI0NCIgaGVpZ2h0PSI0NCIvPiYjeGE7ICAgIDwvZGVmcz4mI3hhOyAgICA8ZyBpZD0iUGFnZS0xIiBzdHJva2U9Im5vbmUiIHN0cm9rZS13aWR0aD0iMSIgZmlsbD0ibm9uZSIgZmlsbC1ydWxlPSJldmVub2RkIj4mI3hhOyAgICAgICAgPGcgaWQ9Ik1hc2siPiYjeGE7ICAgICAgICAgICAgPG1hc2sgaWQ9Im1hc2stMiIgZmlsbD0id2hpdGUiPiYjeGE7ICAgICAgICAgICAgICAgIDx1c2UgeGxpbms6aHJlZj0iI3BhdGgtMSIvPiYjeGE7ICAgICAgICAgICAgPC9tYXNrPiYjeGE7ICAgICAgICAgICAgPGcgaWQ9IlJlY3RhbmdsZSIvPiYjeGE7ICAgICAgICAgICAgPGcgaWQ9Imljbi1Gb2xkZXItTmV3LTQyeDQyIiBtYXNrPSJ1cmwoI21hc2stMikiPiYjeGE7ICAgICAgICAgICAgICAgIDxnIHRyYW5zZm9ybT0idHJhbnNsYXRlKDAuMDAwMDAwLCAtNC4wMDAwMDApIj4mI3hhOyAgICAgICAgICAgICAgICAgICAgPHJlY3QgaWQ9IlJlY3RhbmdsZSIgZmlsbC1ydWxlPSJub256ZXJvIiB4PSIwIiB5PSI0IiB3aWR0aD0iNDQiIGhlaWdodD0iNDQiLz4mI3hhOyAgICAgICAgICAgICAgICAgICAgPGcgaWQ9IkdydXBwZV8xNjYiIHN0cm9rZS13aWR0aD0iMSIgZmlsbC1ydWxlPSJldmVub2RkIiB0cmFuc2Zvcm09InRyYW5zbGF0ZSgxLjAwMDAwMCwgMC4wMDAwMDApIj4mI3hhOyAgICAgICAgICAgICAgICAgICAgICAgIDxnIGlkPSJHcnVwcGVfMTYwIiB0cmFuc2Zvcm09InRyYW5zbGF0ZSgyLjAwMDAwMCwgNS4wMDAwMDApIiBmaWxsLXJ1bGU9Im5vbnplcm8iPiYjeGE7ICAgICAgICAgICAgICAgICAgICAgICAgICAgIDxnIGlkPSJHcnVwcGVfNzIiIHRyYW5zZm9ybT0idHJhbnNsYXRlKDEwLjAwMDAwMCwgMTAuMDAwMDAwKSI+JiN4YTsgICAgICAgICAgICAgICAgICAgICAgICAgICAgICAgIDxwYXRoIGQ9Ik0yNi41MDcsMjAuMDM0MDc3IEwxLjQ5MywyMC4wMzQwNzcgQzEuMTAxMDA0MDQsMjAuMDM3OTk4NSAwLjcyMzQ3Njk0NSwxOS44ODYxMDMgMC40NDM0ODA3MTEsMTkuNjExNzMyOSBDMC4xNjM0ODQ0NzcsMTkuMzM3MzYyOSAwLjAwMzk1ODEyMjUyLDE4Ljk2Mjk5NjQgMCwxOC41NzEgTDAsMS40NjMgQzAuMDAzOTU4MTIyNTIsMS4wNzEwMDM2MyAwLjE2MzQ4NDQ3NywwLjY5NjYzNzEwOSAwLjQ0MzQ4MDcxMSwwLjQyMjI2NzA1NSBDMC43MjM0NzY5NDUsMC4xNDc4OTcwMDIgMS4xMDEwMDQwNCwtMC4wMDM5OTg0OTc3OSAxLjQ5MywtNy42OTg4MjA5NWUtMDUgTDguNTU0LC03LjY5ODgyMDk1ZS0wNSBDOS4wODk0MTc5MiwtMC4wMDExNjk4NjkyOCA5LjU4NDg2Mzg5LDAuMjgzMTM5ODk2IDkuODU0LDAuNzQ2IEwxMC42NzgsMS42NjcgQzEwLjk0NzEzNjEsMi4xMjk4NjAxIDExLjQ0MjU4MjEsMi40MTQxNjk4NyAxMS45NzgsMi40MTMgTDI2LjUwNywyLjQxMyBDMjYuODk4OTk2LDIuNDA5MDAxNSAyNy4yNzY1MjMxLDIuNTYwODk3IDI3LjU1NjUxOTMsMi44MzUyNjcwNiBDMjcuODM2NTE1NSwzLjEwOTYzNzExIDI3Ljk5NjA0MTksMy40ODQwMDM2MyAyOCwzLjg3NiBMMjgsMTkuMDg1IEMyOCwxOS44OTMgMjcuMzMxLDIwLjAzNDA3NyAyNi41MDcsMjAuMDM0MDc3IFoiIGlkPSJQZmFkXzQwMSIgZmlsbD0iIzk1RERGRCIvPiYjeGE7ICAgICAgICAgICAgICAgICAgICAgICAgICAgICAgICA8cmVjdCBpZD0iUmVjaHRlY2tfMzIiIGZpbGw9IiM2RUNGRjkiIHg9IjAiIHk9IjQiIHdpZHRoPSIyOCIgaGVpZ2h0PSIxOCIgcng9IjMiLz4mI3hhOyAgICAgICAgICAgICAgICAgICAgICAgICAgICA8L2c+JiN4YTsgICAgICAgICAgICAgICAgICAgICAgICA8L2c+JiN4YTsgICAgICAgICAgICAgICAgICAgICAgICA8cmVjdCBpZD0iUmVjaHRlY2tfMTYzMSIgeD0iMCIgeT0iMCIgd2lkdGg9IjQyIiBoZWlnaHQ9IjQyIi8+JiN4YTsgICAgICAgICAgICAgICAgICAgIDwvZz4mI3hhOyAgICAgICAgICAgICAgICA8L2c+JiN4YTsgICAgICAgICAgICA8L2c+JiN4YTsgICAgICAgIDwvZz4mI3hhOyAgICA8L2c+JiN4YTs8L3N2Zz4=;" vertex="1" parent="1">
          <mxGeometry x="46" y="310" width="119.17" height="130" as="geometry" />
        </mxCell>
        <mxCell id="tOn2bwrpuCFC1Trtvur6-18" style="edgeStyle=orthogonalEdgeStyle;rounded=0;orthogonalLoop=1;jettySize=auto;html=1;entryX=0;entryY=0.5;entryDx=0;entryDy=0;entryPerimeter=0;fontSize=15;" edge="1" source="tOn2bwrpuCFC1Trtvur6-19" target="tOn2bwrpuCFC1Trtvur6-21" parent="1">
          <mxGeometry relative="1" as="geometry" />
        </mxCell>
        <mxCell id="tOn2bwrpuCFC1Trtvur6-19" value="" style="shape=image;verticalLabelPosition=bottom;labelBackgroundColor=#ffffff;verticalAlign=top;aspect=fixed;imageAspect=0;image=data:image/svg+xml,PHN2ZyB4bWxucz0iaHR0cDovL3d3dy53My5vcmcvMjAwMC9zdmciIHhtbG5zOnhsaW5rPSJodHRwOi8vd3d3LnczLm9yZy8xOTk5L3hsaW5rIiB3aWR0aD0iNDQiIGhlaWdodD0iNDgiIHZpZXdCb3g9IjAgLTQgNDQgNDgiIHZlcnNpb249IjEuMSI+JiN4YTsgICAgPHRpdGxlPmZvbGRlck5ldzwvdGl0bGU+JiN4YTsgICAgPGRlZnM+JiN4YTsgICAgICAgIDxyZWN0IGlkPSJwYXRoLTEiIHg9IjAiIHk9IjAiIHdpZHRoPSI0NCIgaGVpZ2h0PSI0NCIvPiYjeGE7ICAgIDwvZGVmcz4mI3hhOyAgICA8ZyBpZD0iUGFnZS0xIiBzdHJva2U9Im5vbmUiIHN0cm9rZS13aWR0aD0iMSIgZmlsbD0ibm9uZSIgZmlsbC1ydWxlPSJldmVub2RkIj4mI3hhOyAgICAgICAgPGcgaWQ9Ik1hc2siPiYjeGE7ICAgICAgICAgICAgPG1hc2sgaWQ9Im1hc2stMiIgZmlsbD0id2hpdGUiPiYjeGE7ICAgICAgICAgICAgICAgIDx1c2UgeGxpbms6aHJlZj0iI3BhdGgtMSIvPiYjeGE7ICAgICAgICAgICAgPC9tYXNrPiYjeGE7ICAgICAgICAgICAgPGcgaWQ9IlJlY3RhbmdsZSIvPiYjeGE7ICAgICAgICAgICAgPGcgaWQ9Imljbi1Gb2xkZXItTmV3LTQyeDQyIiBtYXNrPSJ1cmwoI21hc2stMikiPiYjeGE7ICAgICAgICAgICAgICAgIDxnIHRyYW5zZm9ybT0idHJhbnNsYXRlKDAuMDAwMDAwLCAtNC4wMDAwMDApIj4mI3hhOyAgICAgICAgICAgICAgICAgICAgPHJlY3QgaWQ9IlJlY3RhbmdsZSIgZmlsbC1ydWxlPSJub256ZXJvIiB4PSIwIiB5PSI0IiB3aWR0aD0iNDQiIGhlaWdodD0iNDQiLz4mI3hhOyAgICAgICAgICAgICAgICAgICAgPGcgaWQ9IkdydXBwZV8xNjYiIHN0cm9rZS13aWR0aD0iMSIgZmlsbC1ydWxlPSJldmVub2RkIiB0cmFuc2Zvcm09InRyYW5zbGF0ZSgxLjAwMDAwMCwgMC4wMDAwMDApIj4mI3hhOyAgICAgICAgICAgICAgICAgICAgICAgIDxnIGlkPSJHcnVwcGVfMTYwIiB0cmFuc2Zvcm09InRyYW5zbGF0ZSgyLjAwMDAwMCwgNS4wMDAwMDApIiBmaWxsLXJ1bGU9Im5vbnplcm8iPiYjeGE7ICAgICAgICAgICAgICAgICAgICAgICAgICAgIDxnIGlkPSJHcnVwcGVfNzIiIHRyYW5zZm9ybT0idHJhbnNsYXRlKDEwLjAwMDAwMCwgMTAuMDAwMDAwKSI+JiN4YTsgICAgICAgICAgICAgICAgICAgICAgICAgICAgICAgIDxwYXRoIGQ9Ik0yNi41MDcsMjAuMDM0MDc3IEwxLjQ5MywyMC4wMzQwNzcgQzEuMTAxMDA0MDQsMjAuMDM3OTk4NSAwLjcyMzQ3Njk0NSwxOS44ODYxMDMgMC40NDM0ODA3MTEsMTkuNjExNzMyOSBDMC4xNjM0ODQ0NzcsMTkuMzM3MzYyOSAwLjAwMzk1ODEyMjUyLDE4Ljk2Mjk5NjQgMCwxOC41NzEgTDAsMS40NjMgQzAuMDAzOTU4MTIyNTIsMS4wNzEwMDM2MyAwLjE2MzQ4NDQ3NywwLjY5NjYzNzEwOSAwLjQ0MzQ4MDcxMSwwLjQyMjI2NzA1NSBDMC43MjM0NzY5NDUsMC4xNDc4OTcwMDIgMS4xMDEwMDQwNCwtMC4wMDM5OTg0OTc3OSAxLjQ5MywtNy42OTg4MjA5NWUtMDUgTDguNTU0LC03LjY5ODgyMDk1ZS0wNSBDOS4wODk0MTc5MiwtMC4wMDExNjk4NjkyOCA5LjU4NDg2Mzg5LDAuMjgzMTM5ODk2IDkuODU0LDAuNzQ2IEwxMC42NzgsMS42NjcgQzEwLjk0NzEzNjEsMi4xMjk4NjAxIDExLjQ0MjU4MjEsMi40MTQxNjk4NyAxMS45NzgsMi40MTMgTDI2LjUwNywyLjQxMyBDMjYuODk4OTk2LDIuNDA5MDAxNSAyNy4yNzY1MjMxLDIuNTYwODk3IDI3LjU1NjUxOTMsMi44MzUyNjcwNiBDMjcuODM2NTE1NSwzLjEwOTYzNzExIDI3Ljk5NjA0MTksMy40ODQwMDM2MyAyOCwzLjg3NiBMMjgsMTkuMDg1IEMyOCwxOS44OTMgMjcuMzMxLDIwLjAzNDA3NyAyNi41MDcsMjAuMDM0MDc3IFoiIGlkPSJQZmFkXzQwMSIgZmlsbD0iIzk1RERGRCIvPiYjeGE7ICAgICAgICAgICAgICAgICAgICAgICAgICAgICAgICA8cmVjdCBpZD0iUmVjaHRlY2tfMzIiIGZpbGw9IiM2RUNGRjkiIHg9IjAiIHk9IjQiIHdpZHRoPSIyOCIgaGVpZ2h0PSIxOCIgcng9IjMiLz4mI3hhOyAgICAgICAgICAgICAgICAgICAgICAgICAgICA8L2c+JiN4YTsgICAgICAgICAgICAgICAgICAgICAgICA8L2c+JiN4YTsgICAgICAgICAgICAgICAgICAgICAgICA8cmVjdCBpZD0iUmVjaHRlY2tfMTYzMSIgeD0iMCIgeT0iMCIgd2lkdGg9IjQyIiBoZWlnaHQ9IjQyIi8+JiN4YTsgICAgICAgICAgICAgICAgICAgIDwvZz4mI3hhOyAgICAgICAgICAgICAgICA8L2c+JiN4YTsgICAgICAgICAgICA8L2c+JiN4YTsgICAgICAgIDwvZz4mI3hhOyAgICA8L2c+JiN4YTs8L3N2Zz4=;" vertex="1" parent="1">
          <mxGeometry x="350" y="310" width="119.17" height="130" as="geometry" />
        </mxCell>
        <mxCell id="tOn2bwrpuCFC1Trtvur6-21" value="" style="shape=note;whiteSpace=wrap;html=1;backgroundOutline=1;darkOpacity=0.05;fontSize=15;align=left;" vertex="1" parent="1">
          <mxGeometry x="650" y="342.5" width="60" height="65" as="geometry" />
        </mxCell>
        <mxCell id="tOn2bwrpuCFC1Trtvur6-23" value="Becomes offline" style="whiteSpace=wrap;html=1;align=center;fontSize=15;" vertex="1" parent="1">
          <mxGeometry x="630" y="248" width="100" height="40" as="geometry" />
        </mxCell>
        <mxCell id="tOn2bwrpuCFC1Trtvur6-24" value="" style="shape=image;verticalLabelPosition=bottom;labelBackgroundColor=#ffffff;verticalAlign=top;aspect=fixed;imageAspect=0;image=data:image/svg+xml,PHN2ZyB4bWxucz0iaHR0cDovL3d3dy53My5vcmcvMjAwMC9zdmciIHhtbG5zOnhsaW5rPSJodHRwOi8vd3d3LnczLm9yZy8xOTk5L3hsaW5rIiB3aWR0aD0iMzYiIGhlaWdodD0iMzYiIHZpZXdCb3g9Ii05IC05IDM2IDM2IiB2ZXJzaW9uPSIxLjEiPiYjeGE7ICAgIDx0aXRsZT5VbnRpdGxlZDwvdGl0bGU+JiN4YTsgICAgPGRlZnM+JiN4YTsgICAgICAgIDxyZWN0IGlkPSJwYXRoLTEiIHg9IjAiIHk9IjAiIHdpZHRoPSIxOCIgaGVpZ2h0PSIxOCIvPiYjeGE7ICAgIDwvZGVmcz4mI3hhOyAgICA8ZyBpZD0iUGFnZS0xIiBzdHJva2U9Im5vbmUiIHN0cm9rZS13aWR0aD0iMSIgZmlsbD0ibm9uZSIgZmlsbC1ydWxlPSJldmVub2RkIj4mI3hhOyAgICAgICAgPGcgaWQ9Ikljbi1zdG9yZWQtbG9jYWwtMzZ4MzYiPiYjeGE7ICAgICAgICAgICAgPG1hc2sgaWQ9Im1hc2stMiIgZmlsbD0id2hpdGUiPiYjeGE7ICAgICAgICAgICAgICAgIDx1c2UgeGxpbms6aHJlZj0iI3BhdGgtMSIvPiYjeGE7ICAgICAgICAgICAgPC9tYXNrPiYjeGE7ICAgICAgICAgICAgPGcgaWQ9IlJlY3RhbmdsZSIvPiYjeGE7ICAgICAgICAgICAgPGcgbWFzaz0idXJsKCNtYXNrLTIpIj4mI3hhOyAgICAgICAgICAgICAgICA8ZyB0cmFuc2Zvcm09InRyYW5zbGF0ZSgtOS4wMDAwMDAsIC05LjAwMDAwMCkiPiYjeGE7ICAgICAgICAgICAgICAgICAgICA8cmVjdCBpZD0iUmVjdGFuZ2xlIiBmaWxsLXJ1bGU9Im5vbnplcm8iIHg9IjkiIHk9IjkiIHdpZHRoPSIxOCIgaGVpZ2h0PSIxOCIvPiYjeGE7ICAgICAgICAgICAgICAgICAgICA8ZyBpZD0iR3J1cHBlXzE2NCIgc3Ryb2tlLXdpZHRoPSIxIiBmaWxsLXJ1bGU9ImV2ZW5vZGQiPiYjeGE7ICAgICAgICAgICAgICAgICAgICAgICAgPGcgaWQ9IkdydXBwZV84NSIgdHJhbnNmb3JtPSJ0cmFuc2xhdGUoMTAuMDAwMDAwLCAxMC4wMDAwMDApIj4mI3hhOyAgICAgICAgICAgICAgICAgICAgICAgICAgICA8ZyBpZD0iRWxsaXBzZV8xIj4mI3hhOyAgICAgICAgICAgICAgICAgICAgICAgICAgICAgICAgPGNpcmNsZSBpZD0iT3ZhbCIgZmlsbD0iIzE2ODkyNyIgZmlsbC1ydWxlPSJub256ZXJvIiBjeD0iOCIgY3k9IjgiIHI9IjgiLz4mI3hhOyAgICAgICAgICAgICAgICAgICAgICAgICAgICAgICAgPGNpcmNsZSBpZD0iT3ZhbCIgc3Ryb2tlPSIjMTc4RDI5IiBjeD0iOCIgY3k9IjgiIHI9IjcuNSIvPiYjeGE7ICAgICAgICAgICAgICAgICAgICAgICAgICAgIDwvZz4mI3hhOyAgICAgICAgICAgICAgICAgICAgICAgICAgICA8cG9seWxpbmUgaWQ9IlBmYWRfNDAyIiBzdHJva2U9IiNGRkZGRkYiIHBvaW50cz0iNC4xNTEgNy4yNzkgNy41ODQgMTAuOSAxMi45OTkgNS4xOSIvPiYjeGE7ICAgICAgICAgICAgICAgICAgICAgICAgPC9nPiYjeGE7ICAgICAgICAgICAgICAgICAgICAgICAgPHJlY3QgaWQ9IlJlY2h0ZWNrXzE2MjkiIHg9IjAiIHk9IjAiIHdpZHRoPSIzNiIgaGVpZ2h0PSIzNiIvPiYjeGE7ICAgICAgICAgICAgICAgICAgICA8L2c+JiN4YTsgICAgICAgICAgICAgICAgPC9nPiYjeGE7ICAgICAgICAgICAgPC9nPiYjeGE7ICAgICAgICA8L2c+JiN4YTsgICAgPC9nPiYjeGE7PC9zdmc+;" vertex="1" parent="1">
          <mxGeometry x="407" y="310" width="36" height="36" as="geometry" />
        </mxCell>
        <mxCell id="tOn2bwrpuCFC1Trtvur6-25" value="" style="shape=image;verticalLabelPosition=bottom;labelBackgroundColor=#ffffff;verticalAlign=top;aspect=fixed;imageAspect=0;image=data:image/svg+xml,PHN2ZyB4bWxucz0iaHR0cDovL3d3dy53My5vcmcvMjAwMC9zdmciIHhtbG5zOnhsaW5rPSJodHRwOi8vd3d3LnczLm9yZy8xOTk5L3hsaW5rIiB3aWR0aD0iMzYiIGhlaWdodD0iMzYiIHZpZXdCb3g9Ii05IC05IDM2IDM2IiB2ZXJzaW9uPSIxLjEiPiYjeGE7ICAgIDx0aXRsZT5VbnRpdGxlZDwvdGl0bGU+JiN4YTsgICAgPGRlZnM+JiN4YTsgICAgICAgIDxyZWN0IGlkPSJwYXRoLTEiIHg9IjAiIHk9IjAiIHdpZHRoPSIxOCIgaGVpZ2h0PSIxOCIvPiYjeGE7ICAgIDwvZGVmcz4mI3hhOyAgICA8ZyBpZD0iUGFnZS0xIiBzdHJva2U9Im5vbmUiIHN0cm9rZS13aWR0aD0iMSIgZmlsbD0ibm9uZSIgZmlsbC1ydWxlPSJldmVub2RkIj4mI3hhOyAgICAgICAgPGcgaWQ9Ikljbi1zdG9yZWQtbG9jYWwtMzZ4MzYiPiYjeGE7ICAgICAgICAgICAgPG1hc2sgaWQ9Im1hc2stMiIgZmlsbD0id2hpdGUiPiYjeGE7ICAgICAgICAgICAgICAgIDx1c2UgeGxpbms6aHJlZj0iI3BhdGgtMSIvPiYjeGE7ICAgICAgICAgICAgPC9tYXNrPiYjeGE7ICAgICAgICAgICAgPGcgaWQ9IlJlY3RhbmdsZSIvPiYjeGE7ICAgICAgICAgICAgPGcgbWFzaz0idXJsKCNtYXNrLTIpIj4mI3hhOyAgICAgICAgICAgICAgICA8ZyB0cmFuc2Zvcm09InRyYW5zbGF0ZSgtOS4wMDAwMDAsIC05LjAwMDAwMCkiPiYjeGE7ICAgICAgICAgICAgICAgICAgICA8cmVjdCBpZD0iUmVjdGFuZ2xlIiBmaWxsLXJ1bGU9Im5vbnplcm8iIHg9IjkiIHk9IjkiIHdpZHRoPSIxOCIgaGVpZ2h0PSIxOCIvPiYjeGE7ICAgICAgICAgICAgICAgICAgICA8ZyBpZD0iR3J1cHBlXzE2NCIgc3Ryb2tlLXdpZHRoPSIxIiBmaWxsLXJ1bGU9ImV2ZW5vZGQiPiYjeGE7ICAgICAgICAgICAgICAgICAgICAgICAgPGcgaWQ9IkdydXBwZV84NSIgdHJhbnNmb3JtPSJ0cmFuc2xhdGUoMTAuMDAwMDAwLCAxMC4wMDAwMDApIj4mI3hhOyAgICAgICAgICAgICAgICAgICAgICAgICAgICA8ZyBpZD0iRWxsaXBzZV8xIj4mI3hhOyAgICAgICAgICAgICAgICAgICAgICAgICAgICAgICAgPGNpcmNsZSBpZD0iT3ZhbCIgZmlsbD0iIzE2ODkyNyIgZmlsbC1ydWxlPSJub256ZXJvIiBjeD0iOCIgY3k9IjgiIHI9IjgiLz4mI3hhOyAgICAgICAgICAgICAgICAgICAgICAgICAgICAgICAgPGNpcmNsZSBpZD0iT3ZhbCIgc3Ryb2tlPSIjMTc4RDI5IiBjeD0iOCIgY3k9IjgiIHI9IjcuNSIvPiYjeGE7ICAgICAgICAgICAgICAgICAgICAgICAgICAgIDwvZz4mI3hhOyAgICAgICAgICAgICAgICAgICAgICAgICAgICA8cG9seWxpbmUgaWQ9IlBmYWRfNDAyIiBzdHJva2U9IiNGRkZGRkYiIHBvaW50cz0iNC4xNTEgNy4yNzkgNy41ODQgMTAuOSAxMi45OTkgNS4xOSIvPiYjeGE7ICAgICAgICAgICAgICAgICAgICAgICAgPC9nPiYjeGE7ICAgICAgICAgICAgICAgICAgICAgICAgPHJlY3QgaWQ9IlJlY2h0ZWNrXzE2MjkiIHg9IjAiIHk9IjAiIHdpZHRoPSIzNiIgaGVpZ2h0PSIzNiIvPiYjeGE7ICAgICAgICAgICAgICAgICAgICA8L2c+JiN4YTsgICAgICAgICAgICAgICAgPC9nPiYjeGE7ICAgICAgICAgICAgPC9nPiYjeGE7ICAgICAgICA8L2c+JiN4YTsgICAgPC9nPiYjeGE7PC9zdmc+;" vertex="1" parent="1">
          <mxGeometry x="100" y="310" width="36" height="36" as="geometry" />
        </mxCell>
      </root>
    </mxGraphModel>
  </diagram>
</mxfile>
